{"title":"Ghost Whisperer S3D2 (retail)(multi audio+multisub) RHoek","uid":6008856,"size":4509068683,"categoryP":"video","categoryS":"tv_shows","magnet":"?xt=urn:btih:a9018d8457cb296c0286b00a75f58c835ff23ba5&amp;dn=Ghost+Whisperer+S3D2+%28retail%29%28multi+audio%2Bmultisub%29+RHoek&amp;tr=udp%3A%2F%2Ftracker.openbittorrent.com%3A80&amp;tr=udp%3A%2F%2Fopen.demonii.com%3A1337&amp;tr=udp%3A%2F%2Ftracker.coppersurfer.tk%3A6969&amp;tr=udp%3A%2F%2Fexodus.desync.com%3A6969","seeders":0,"leechers":3,"uploader":"RHoek-2lions","files":-1,"time":1291412071,"description":"FOR ENGLISH, PLEASE SCROLL DOWN!\n\n~~~~~~~~~~~~~~~~~~~~~~~~~~~~~~~~~~~~~~~~~~~~~~~~~~~~~~~~~\nVERHAALLIJN:\nÃ‚Â¯Ã‚Â¯Ã‚Â¯Ã‚Â¯Ã‚Â¯Ã‚Â¯Ã‚Â¯Ã‚Â¯Ã‚Â¯Ã‚Â¯Ã‚Â¯Ã‚Â¯\nVanaf haar jeugd wist Melinda Gordon(Jennifer Love Hewitt) dat ze doden kon zien en met ze kan praten. Aardgebonden geesten die nog niet zijn overgegaan. Deze geesten vragen de hulp van Melinda om boodschappen door te geven omdat ze door hun plotselinge dood niet voldoende afscheid hebben kunnen nemen. Geesten vragen op de voor Melinda slechte tijdstippen haar hulp. Zeker nu ze verhuisd en getrouwd is met Jim Clancy(David Conrad). Ook heeft ze een antiekwinkel waarmee ze druk is. Andrea Moreno (Aisha Tyler), Melinda's zakenpartner in de antiek winkel en vriendin, is erg gefascineerd door Melinda's gave. Hoewel Melinda haar gave af en toe kan vervloeken helpt ze altijd diegene die om hulp vragen.\n\n~~~~~~~~~~~~~~~~~~~~~~~~~~~~~~~~~~~~~~~~~~~~~~~~~~~~~~~~~\n- Titel: Ghost Whisperer S3D2 (retail)(multi audio+multisub) RHoek 2Lions\n- Bron: Retail DVD9\n- Formaat: DVD5 (omgezet met dvdfab)\n- Geluid: 5.1\n- Taal: Engels, Duits &amp; Italiaans\n- Ondertitelingen: Engels, Engels voor doven &amp; slechthorenden, Duits, Italiaans, Turks, Arabisch &amp; Nederlands.\n- Menu: Ja\n- Extra's: Nee\n- Cover: Nee\n- Label: Nee \n- Genre : Drama | Fantasy\n\nHeel veel buigingen voor het mogelijk maken van deze disk gaan naar TheNZBBrains &amp; ViSioNz. TOP!\n\nIMDb: http://www.imdb.com/title/tt0460644/\n\n~~~~~~~~~~~~~~~~~~~~~~~~~~~~~~~~~~~~~~~~~~~~~~~~~~~~~~~~~\nSTORY LINE:\nÃ‚Â¯Ã‚Â¯Ã‚Â¯Ã‚Â¯Ã‚Â¯Ã‚Â¯Ã‚Â¯Ã‚Â¯Ã‚Â¯Ã‚Â¯Ã‚Â¯\nA newlywed with the ability to communicate with the earthbound spirits of the recently deceased overcomes skepticism and doubt to help send their important messages to the living and allow the dead to pass on to the other side. \n\n~~~~~~~~~~~~~~~~~~~~~~~~~~~~~~~~~~~~~~~~~~~~~~~~~~~~~~~~~\n- Title: Ghost Whisperer S3D2 (retail)(multi audio+multisub) RHoek 2Lions\n- Source: Retail DVD9\n- Format: DVD5 (converted with dvdfab 8)\n- Audio: 5.1\n- Language: English, German &amp; Italian\n- Subtitles: English, English for the hearing impared, German, Italian, Turkish, Arabic &amp; Dutch\n- Menu: Yes \n- Extras: No\n- Cover: No\n- Label: No\n- Genre : Drama | Fantasy\n\nLots of thanks go to TheNZBBrains &amp; ViSioNz for making this disk possible. Thanks!\n\nIMDb: http://www.imdb.com/title/tt0460644/\n\n~~~~~~~~~~~~~~~~~~~~~~~~~~~~~~~~~~~~~~~~~~~~~~~~~~~~~~~~~\nVIDEO AND AUDIO INFORMATION\nÃ‚Â¯Ã‚Â¯Ã‚Â¯Ã‚Â¯Ã‚Â¯Ã‚Â¯Ã‚Â¯Ã‚Â¯Ã‚Â¯Ã‚Â¯Ã‚Â¯Ã‚Â¯Ã‚Â¯Ã‚Â¯Ã‚Â¯Ã‚Â¯Ã‚Â¯Ã‚Â¯Ã‚Â¯Ã‚Â¯Ã‚Â¯Ã‚Â¯Ã‚Â¯Ã‚Â¯Ã‚Â¯Ã‚Â¯Ã‚Â¯Ã‚Â¯Ã‚Â¯Ã‚Â¯\nVideo\nID                               : 224 (0xE0)\nFormat                           : MPEG Video\nFormat version                   : Version 2\nFormat profile                   : Main@Main\nFormat settings, BVOP            : Yes\nFormat settings, Matrix          : Default\nDuration                         : 36mn 25s\nBit rate mode                    : Variable\nBit rate                         : 2 892 Kbps\nWidth                            : 720 pixels\nHeight                           : 576 pixels\nDisplay aspect ratio             : 16:9\nFrame rate                       : 25.000 fps\nStandard                         : Component\nColor space                      : YUV\nChroma subsampling               : 4:2:0\nBit depth                        : 8 bits\nScan type                        : Progressive\nBits/(Pixel*Frame)               : 0.279\nStream size                      : 753 MiB (74%)\nWriting library                  : TMPGEnc 2.524.63.181\n\nAudio #1\nID                               : 128 (0x80)\nFormat                           : AC-3\nFormat/Info                      : Audio Coding 3\nMode extension                   : CM (complete main)\nDuration                         : 36mn 25s\nBit rate mode                    : Constant\nBit rate                         : 384 Kbps\nChannel(s)                       : 6 channels\nChannel positions                : Front: L C R, Side: L R, LFE\nSampling rate                    : 48.0 KHz\nBit depth                        : 16 bits\nVideo delay                      : -74ms\nStream size                      : 100 MiB (10%)\n\nAudio #2\nID                               : 129 (0x81)\nFormat                           : AC-3\nFormat/Info                      : Audio Coding 3\nMode extension                   : CM (complete main)\nDuration                         : 36mn 25s\nBit rate mode                    : Constant\nBit rate                         : 384 Kbps\nChannel(s)                       : 6 channels\nChannel positions                : Front: L C R, Side: L R, LFE\nSampling rate                    : 48.0 KHz\nBit depth                        : 16 bits\nVideo delay                      : -74ms\nStream size                      : 100 MiB (10%)\n\nAudio #3\nID                               : 130 (0x82)\nFormat                           : AC-3\nFormat/Info                      : Audio Coding 3\nFormat profile                   : Dolby Digital\nMode extension                   : CM (complete main)\nDuration                         : 36mn 25s\nBit rate mode                    : Constant\nBit rate                         : 192 Kbps\nChannel(s)                       : 2 channels\nChannel positions                : Front: L R\nSampling rate                    : 48.0 KHz\nBit depth                        : 16 bits\nVideo delay                      : -74ms\nStream size                      : 50.0 MiB (5%)\n\n*********************************\nBrought to you by Ren HÃƒÂ¶ek\n*********************************","torrent":{"xt":"urn:btih:a9018d8457cb296c0286b00a75f58c835ff23ba5","amp;dn":"Ghost+Whisperer+S3D2+%28retail%29%28multi+audio%2Bmultisub%29+RHoek","amp;tr":["udp%3A%2F%2Ftracker.openbittorrent.com%3A80","udp%3A%2F%2Fopen.demonii.com%3A1337","udp%3A%2F%2Ftracker.coppersurfer.tk%3A6969","udp%3A%2F%2Fexodus.desync.com%3A6969"],"infoHash":"a9018d8457cb296c0286b00a75f58c835ff23ba5","infoHashBuffer":{"type":"Buffer","data":[169,1,141,132,87,203,41,108,2,134,176,10,117,245,140,131,95,242,59,165]},"announce":[],"urlList":[]}}